<svg width="31" height="10" viewBox="0 0 31 10" fill="none" xmlns="http://www.w3.org/2000/svg">
<path d="M0.0378125 8V0.93H2.93781C3.26448 0.93 3.56448 0.96 3.83781 1.02C4.11781 1.07333 4.35781 1.17 4.55781 1.31C4.76448 1.45 4.92448 1.63667 5.03781 1.87C5.15115 2.10333 5.20781 2.39333 5.20781 2.74C5.20781 3.06 5.13448 3.35333 4.98781 3.62C4.84115 3.88 4.62448 4.07667 4.33781 4.21C4.72448 4.31 5.02115 4.50667 5.22781 4.8C5.43448 5.08667 5.53781 5.46 5.53781 5.92C5.53781 6.32667 5.46115 6.66667 5.30781 6.94C5.16115 7.20667 4.95448 7.42 4.68781 7.58C4.42781 7.73333 4.12781 7.84333 3.78781 7.91C3.44781 7.97 3.08781 8 2.70781 8H0.0378125ZM1.28781 6.86H2.77781C2.96448 6.86 3.14781 6.84667 3.32781 6.82C3.50781 6.79333 3.67115 6.74667 3.81781 6.68C3.96448 6.61333 4.07781 6.51667 4.15781 6.39C4.24448 6.25667 4.28781 6.08667 4.28781 5.88C4.28781 5.69333 4.25448 5.54 4.18781 5.42C4.12115 5.3 4.02781 5.20667 3.90781 5.14C3.79448 5.06667 3.65781 5.01667 3.49781 4.99C3.33781 4.95667 3.17115 4.94 2.99781 4.94H1.28781V6.86ZM1.28781 3.89H2.60781C2.81448 3.89 3.00115 3.87 3.16781 3.83C3.33448 3.79 3.47781 3.73 3.59781 3.65C3.71781 3.57 3.81115 3.47 3.87781 3.35C3.94448 3.22333 3.97781 3.07333 3.97781 2.9C3.97781 2.66667 3.92448 2.49333 3.81781 2.38C3.71781 2.26 3.57781 2.18 3.39781 2.14C3.21781 2.09333 3.01781 2.07 2.79781 2.07H1.28781V3.89ZM6.53727 8V2.73H7.76727V4.53H8.60727C8.90727 4.53 9.18393 4.55667 9.43727 4.61C9.69727 4.66333 9.9206 4.75333 10.1073 4.88C10.2939 5.00667 10.4373 5.18 10.5373 5.4C10.6439 5.61333 10.6973 5.88333 10.6973 6.21C10.6973 6.53667 10.6373 6.81333 10.5173 7.04C10.4039 7.26667 10.2473 7.45333 10.0473 7.6C9.84727 7.74 9.61393 7.84333 9.34727 7.91C9.08727 7.97 8.8106 8 8.51727 8H6.53727ZM7.76727 6.94H8.12727C8.31393 6.94 8.48727 6.93333 8.64727 6.92C8.81393 6.90667 8.95727 6.88 9.07727 6.84C9.20393 6.79333 9.30393 6.72333 9.37727 6.63C9.4506 6.53667 9.48727 6.41 9.48727 6.25C9.48727 6.09667 9.45727 5.97667 9.39727 5.89C9.33727 5.79667 9.25727 5.72667 9.15727 5.68C9.06393 5.62667 8.95727 5.59333 8.83727 5.58C8.71727 5.56667 8.5906 5.56 8.45727 5.56H7.76727V6.94ZM11.3673 8V2.73H12.5873V8H11.3673ZM13.7638 8V2.73H16.1538C16.3805 2.73 16.6072 2.74667 16.8338 2.78C17.0672 2.80667 17.2772 2.87 17.4638 2.97C17.6505 3.06333 17.8005 3.2 17.9138 3.38C18.0338 3.55333 18.0938 3.79 18.0938 4.09C18.0938 4.25 18.0672 4.4 18.0138 4.54C17.9672 4.68 17.8972 4.8 17.8038 4.9C17.7172 5 17.6072 5.08667 17.4738 5.16C17.7805 5.24667 18.0005 5.4 18.1338 5.62C18.2738 5.83333 18.3438 6.09333 18.3438 6.4C18.3438 6.68667 18.2872 6.93333 18.1738 7.14C18.0605 7.34 17.9072 7.50333 17.7138 7.63C17.5272 7.75667 17.3172 7.85 17.0838 7.91C16.8572 7.97 16.6272 8 16.3938 8H13.7638ZM14.9938 6.94H16.2438C16.4105 6.94 16.5605 6.92333 16.6938 6.89C16.8272 6.85667 16.9338 6.79667 17.0138 6.71C17.1005 6.62333 17.1438 6.50333 17.1438 6.35C17.1438 6.21 17.1105 6.1 17.0438 6.02C16.9838 5.93333 16.9005 5.87333 16.7938 5.84C16.6938 5.8 16.5805 5.77667 16.4538 5.77C16.3272 5.75667 16.2038 5.75 16.0838 5.75H14.9938V6.94ZM14.9938 4.89H15.8238C15.9372 4.89 16.0572 4.88333 16.1838 4.87C16.3105 4.85667 16.4305 4.83 16.5438 4.79C16.6572 4.74333 16.7505 4.68 16.8238 4.6C16.8972 4.52 16.9338 4.41667 16.9338 4.29C16.9338 4.11667 16.8838 3.99333 16.7838 3.92C16.6905 3.84667 16.5738 3.8 16.4338 3.78C16.3005 3.76 16.1672 3.75 16.0338 3.75H14.9938V4.89ZM21.7598 8.07C21.2198 8.07 20.7531 7.96 20.3598 7.74C19.9731 7.52 19.6731 7.20667 19.4598 6.8C19.2531 6.39333 19.1498 5.91667 19.1498 5.37C19.1498 4.81667 19.2531 4.34 19.4598 3.94C19.6731 3.53333 19.9731 3.21667 20.3598 2.99C20.7531 2.76333 21.2198 2.65 21.7598 2.65C22.2931 2.65 22.7531 2.76333 23.1398 2.99C23.5264 3.21667 23.8231 3.53667 24.0298 3.95C24.2364 4.35667 24.3398 4.83667 24.3398 5.39C24.3398 5.93 24.2364 6.40333 24.0298 6.81C23.8298 7.21 23.5364 7.52 23.1498 7.74C22.7631 7.96 22.2998 8.07 21.7598 8.07ZM21.7498 6.96C22.0831 6.96 22.3498 6.88667 22.5498 6.74C22.7564 6.59333 22.9064 6.4 22.9998 6.16C23.0931 5.92 23.1398 5.66 23.1398 5.38C23.1398 5.1 23.0931 4.83667 22.9998 4.59C22.9064 4.34333 22.7564 4.14667 22.5498 4C22.3498 3.84667 22.0831 3.77 21.7498 3.77C21.4164 3.77 21.1464 3.84667 20.9398 4C20.7331 4.14667 20.5831 4.34333 20.4898 4.59C20.3964 4.83667 20.3498 5.1 20.3498 5.38C20.3498 5.66667 20.3964 5.93 20.4898 6.17C20.5831 6.41 20.7331 6.60333 20.9398 6.75C21.1464 6.89 21.4164 6.96 21.7498 6.96ZM24.7694 9.53V6.92C24.9427 6.92 25.086 6.87667 25.1994 6.79C25.3127 6.69667 25.4027 6.57333 25.4694 6.42C25.5427 6.26667 25.5994 6.1 25.6394 5.92C25.6794 5.73333 25.7094 5.54667 25.7294 5.36C25.7694 5.06 25.7927 4.75333 25.7994 4.44C25.8127 4.12 25.8194 3.84667 25.8194 3.62C25.826 3.47333 25.8294 3.32667 25.8294 3.18C25.8294 3.02667 25.8294 2.87667 25.8294 2.73H29.8994V6.92H30.5794V9.53H29.3794V8H25.9694V9.53H24.7694ZM26.5094 6.92H28.6794V3.81H26.9294C26.9227 4.05667 26.916 4.32333 26.9094 4.61C26.9027 4.89 26.8894 5.15667 26.8694 5.41C26.8627 5.55667 26.846 5.72 26.8194 5.9C26.7994 6.08 26.766 6.25667 26.7194 6.43C26.6727 6.60333 26.6027 6.76667 26.5094 6.92Z" fill="#B5B8B1" fill-opacity="0.3"/>
</svg>
