<svg width="38" height="9" viewBox="0 0 38 9" fill="none" xmlns="http://www.w3.org/2000/svg">
<path d="M0.263633 8V0.93H5.04363V2.07H1.51363V8H0.263633ZM4.70152 8.01V6.91C4.84819 6.91 4.97486 6.87667 5.08152 6.81C5.18819 6.73667 5.27819 6.64 5.35152 6.52C5.43819 6.37333 5.50152 6.18667 5.54152 5.96C5.58152 5.73333 5.60819 5.50333 5.62152 5.27C5.64152 4.97 5.65486 4.67 5.66152 4.37C5.67486 4.06333 5.68486 3.77 5.69152 3.49C5.70486 3.20333 5.71152 2.95 5.71152 2.73H9.67152V8H8.45152V3.81H6.84152C6.83486 4.03 6.82486 4.26333 6.81152 4.51C6.80486 4.75667 6.79486 5.00667 6.78152 5.26C6.76819 5.50667 6.74486 5.74667 6.71152 5.98C6.68486 6.24 6.63819 6.50333 6.57152 6.77C6.51152 7.03667 6.40486 7.27667 6.25152 7.49C6.09152 7.69 5.89152 7.82667 5.65152 7.9C5.41819 7.97333 5.10152 8.01 4.70152 8.01ZM12.4946 8.07C12.2613 8.07 12.0346 8.03667 11.8146 7.97C11.6013 7.90333 11.408 7.80667 11.2346 7.68C11.0613 7.54667 10.9246 7.38333 10.8246 7.19C10.7246 6.99 10.6746 6.75667 10.6746 6.49C10.6746 6.15 10.7413 5.87333 10.8746 5.66C11.008 5.44 11.188 5.27333 11.4146 5.16C11.648 5.04667 11.9113 4.97 12.2046 4.93C12.498 4.88333 12.8046 4.86 13.1246 4.86H14.1546C14.1546 4.62667 14.118 4.42667 14.0446 4.26C13.9713 4.08667 13.8546 3.95 13.6946 3.85C13.5413 3.75 13.3413 3.7 13.0946 3.7C12.9346 3.7 12.7846 3.72 12.6446 3.76C12.5113 3.79333 12.3946 3.85 12.2946 3.93C12.2013 4.00333 12.1346 4.1 12.0946 4.22H10.8446C10.8913 3.94667 10.9846 3.71333 11.1246 3.52C11.2713 3.32 11.448 3.15667 11.6546 3.03C11.868 2.90333 12.1013 2.81 12.3546 2.75C12.608 2.68333 12.8646 2.65 13.1246 2.65C13.638 2.65 14.0546 2.75 14.3746 2.95C14.7013 3.15 14.9413 3.43667 15.0946 3.81C15.248 4.18333 15.3246 4.63333 15.3246 5.16V8H14.2446L14.2146 7.36C14.068 7.54667 13.898 7.69333 13.7046 7.8C13.518 7.9 13.3213 7.97 13.1146 8.01C12.908 8.05 12.7013 8.07 12.4946 8.07ZM12.7746 7.08C13.048 7.08 13.288 7.03 13.4946 6.93C13.7013 6.83 13.8646 6.69 13.9846 6.51C14.1046 6.33 14.1646 6.12 14.1646 5.88V5.72H13.2146C13.0413 5.72 12.8746 5.72667 12.7146 5.74C12.5546 5.74667 12.4113 5.77333 12.2846 5.82C12.1646 5.86 12.068 5.92333 11.9946 6.01C11.9213 6.09667 11.8846 6.22 11.8846 6.38C11.8846 6.53333 11.9246 6.66333 12.0046 6.77C12.0846 6.87 12.1913 6.94667 12.3246 7C12.4646 7.05333 12.6146 7.08 12.7746 7.08ZM16.4894 8V2.73H18.8794C19.1061 2.73 19.3327 2.74667 19.5594 2.78C19.7927 2.80667 20.0027 2.87 20.1894 2.97C20.3761 3.06333 20.5261 3.2 20.6394 3.38C20.7594 3.55333 20.8194 3.79 20.8194 4.09C20.8194 4.25 20.7927 4.4 20.7394 4.54C20.6927 4.68 20.6227 4.8 20.5294 4.9C20.4427 5 20.3327 5.08667 20.1994 5.16C20.5061 5.24667 20.7261 5.4 20.8594 5.62C20.9994 5.83333 21.0694 6.09333 21.0694 6.4C21.0694 6.68667 21.0127 6.93333 20.8994 7.14C20.7861 7.34 20.6327 7.50333 20.4394 7.63C20.2527 7.75667 20.0427 7.85 19.8094 7.91C19.5827 7.97 19.3527 8 19.1194 8H16.4894ZM17.7194 6.94H18.9694C19.1361 6.94 19.2861 6.92333 19.4194 6.89C19.5527 6.85667 19.6594 6.79667 19.7394 6.71C19.8261 6.62333 19.8694 6.50333 19.8694 6.35C19.8694 6.21 19.8361 6.1 19.7694 6.02C19.7094 5.93333 19.6261 5.87333 19.5194 5.84C19.4194 5.8 19.3061 5.77667 19.1794 5.77C19.0527 5.75667 18.9294 5.75 18.8094 5.75H17.7194V6.94ZM17.7194 4.89H18.5494C18.6627 4.89 18.7827 4.88333 18.9094 4.87C19.0361 4.85667 19.1561 4.83 19.2694 4.79C19.3827 4.74333 19.4761 4.68 19.5494 4.6C19.6227 4.52 19.6594 4.41667 19.6594 4.29C19.6594 4.11667 19.6094 3.99333 19.5094 3.92C19.4161 3.84667 19.2994 3.8 19.1594 3.78C19.0261 3.76 18.8927 3.75 18.7594 3.75H17.7194V4.89ZM22.0754 8V2.73H23.2954V4.85H25.4954V2.73H26.7154V8H25.4954V5.94H23.2954V8H22.0754ZM29.5357 8.07C29.3023 8.07 29.0757 8.03667 28.8557 7.97C28.6423 7.90333 28.449 7.80667 28.2757 7.68C28.1023 7.54667 27.9657 7.38333 27.8657 7.19C27.7657 6.99 27.7157 6.75667 27.7157 6.49C27.7157 6.15 27.7823 5.87333 27.9157 5.66C28.049 5.44 28.229 5.27333 28.4557 5.16C28.689 5.04667 28.9523 4.97 29.2457 4.93C29.539 4.88333 29.8457 4.86 30.1657 4.86H31.1957C31.1957 4.62667 31.159 4.42667 31.0857 4.26C31.0123 4.08667 30.8957 3.95 30.7357 3.85C30.5823 3.75 30.3823 3.7 30.1357 3.7C29.9757 3.7 29.8257 3.72 29.6857 3.76C29.5523 3.79333 29.4357 3.85 29.3357 3.93C29.2423 4.00333 29.1757 4.1 29.1357 4.22H27.8857C27.9323 3.94667 28.0257 3.71333 28.1657 3.52C28.3123 3.32 28.489 3.15667 28.6957 3.03C28.909 2.90333 29.1423 2.81 29.3957 2.75C29.649 2.68333 29.9057 2.65 30.1657 2.65C30.679 2.65 31.0957 2.75 31.4157 2.95C31.7423 3.15 31.9823 3.43667 32.1357 3.81C32.289 4.18333 32.3657 4.63333 32.3657 5.16V8H31.2857L31.2557 7.36C31.109 7.54667 30.939 7.69333 30.7457 7.8C30.559 7.9 30.3623 7.97 30.1557 8.01C29.949 8.05 29.7423 8.07 29.5357 8.07ZM29.8157 7.08C30.089 7.08 30.329 7.03 30.5357 6.93C30.7423 6.83 30.9057 6.69 31.0257 6.51C31.1457 6.33 31.2057 6.12 31.2057 5.88V5.72H30.2557C30.0823 5.72 29.9157 5.72667 29.7557 5.74C29.5957 5.74667 29.4523 5.77333 29.3257 5.82C29.2057 5.86 29.109 5.92333 29.0357 6.01C28.9623 6.09667 28.9257 6.22 28.9257 6.38C28.9257 6.53333 28.9657 6.66333 29.0457 6.77C29.1257 6.87 29.2323 6.94667 29.3657 7C29.5057 7.05333 29.6557 7.08 29.8157 7.08ZM33.2004 8L34.6104 5.99C34.2571 5.89 33.9738 5.71 33.7604 5.45C33.5471 5.19 33.4404 4.86333 33.4404 4.47C33.4404 4.13 33.4938 3.85 33.6004 3.63C33.7071 3.40333 33.8571 3.22667 34.0504 3.1C34.2438 2.96667 34.4704 2.87333 34.7304 2.82C34.9904 2.76 35.2738 2.73 35.5804 2.73H37.9404V8H36.7204V6.22H35.8004L34.6304 8H33.2004ZM36.0104 5.2H36.7204V3.78H35.6704C35.5171 3.78 35.3771 3.79 35.2504 3.81C35.1238 3.83 35.0171 3.86667 34.9304 3.92C34.8438 3.97333 34.7771 4.04333 34.7304 4.13C34.6838 4.21667 34.6604 4.33333 34.6604 4.48C34.6604 4.64 34.7004 4.77 34.7804 4.87C34.8604 4.96333 34.9671 5.03667 35.1004 5.09C35.2338 5.13667 35.3804 5.16667 35.5404 5.18C35.7004 5.19333 35.8571 5.2 36.0104 5.2Z" fill="#B5B8B1"/>
<path d="M0.263633 8V0.93H5.04363V2.07H1.51363V8H0.263633ZM4.70152 8.01V6.91C4.84819 6.91 4.97486 6.87667 5.08152 6.81C5.18819 6.73667 5.27819 6.64 5.35152 6.52C5.43819 6.37333 5.50152 6.18667 5.54152 5.96C5.58152 5.73333 5.60819 5.50333 5.62152 5.27C5.64152 4.97 5.65486 4.67 5.66152 4.37C5.67486 4.06333 5.68486 3.77 5.69152 3.49C5.70486 3.20333 5.71152 2.95 5.71152 2.73H9.67152V8H8.45152V3.81H6.84152C6.83486 4.03 6.82486 4.26333 6.81152 4.51C6.80486 4.75667 6.79486 5.00667 6.78152 5.26C6.76819 5.50667 6.74486 5.74667 6.71152 5.98C6.68486 6.24 6.63819 6.50333 6.57152 6.77C6.51152 7.03667 6.40486 7.27667 6.25152 7.49C6.09152 7.69 5.89152 7.82667 5.65152 7.9C5.41819 7.97333 5.10152 8.01 4.70152 8.01ZM12.4946 8.07C12.2613 8.07 12.0346 8.03667 11.8146 7.97C11.6013 7.90333 11.408 7.80667 11.2346 7.68C11.0613 7.54667 10.9246 7.38333 10.8246 7.19C10.7246 6.99 10.6746 6.75667 10.6746 6.49C10.6746 6.15 10.7413 5.87333 10.8746 5.66C11.008 5.44 11.188 5.27333 11.4146 5.16C11.648 5.04667 11.9113 4.97 12.2046 4.93C12.498 4.88333 12.8046 4.86 13.1246 4.86H14.1546C14.1546 4.62667 14.118 4.42667 14.0446 4.26C13.9713 4.08667 13.8546 3.95 13.6946 3.85C13.5413 3.75 13.3413 3.7 13.0946 3.7C12.9346 3.7 12.7846 3.72 12.6446 3.76C12.5113 3.79333 12.3946 3.85 12.2946 3.93C12.2013 4.00333 12.1346 4.1 12.0946 4.22H10.8446C10.8913 3.94667 10.9846 3.71333 11.1246 3.52C11.2713 3.32 11.448 3.15667 11.6546 3.03C11.868 2.90333 12.1013 2.81 12.3546 2.75C12.608 2.68333 12.8646 2.65 13.1246 2.65C13.638 2.65 14.0546 2.75 14.3746 2.95C14.7013 3.15 14.9413 3.43667 15.0946 3.81C15.248 4.18333 15.3246 4.63333 15.3246 5.16V8H14.2446L14.2146 7.36C14.068 7.54667 13.898 7.69333 13.7046 7.8C13.518 7.9 13.3213 7.97 13.1146 8.01C12.908 8.05 12.7013 8.07 12.4946 8.07ZM12.7746 7.08C13.048 7.08 13.288 7.03 13.4946 6.93C13.7013 6.83 13.8646 6.69 13.9846 6.51C14.1046 6.33 14.1646 6.12 14.1646 5.88V5.72H13.2146C13.0413 5.72 12.8746 5.72667 12.7146 5.74C12.5546 5.74667 12.4113 5.77333 12.2846 5.82C12.1646 5.86 12.068 5.92333 11.9946 6.01C11.9213 6.09667 11.8846 6.22 11.8846 6.38C11.8846 6.53333 11.9246 6.66333 12.0046 6.77C12.0846 6.87 12.1913 6.94667 12.3246 7C12.4646 7.05333 12.6146 7.08 12.7746 7.08ZM16.4894 8V2.73H18.8794C19.1061 2.73 19.3327 2.74667 19.5594 2.78C19.7927 2.80667 20.0027 2.87 20.1894 2.97C20.3761 3.06333 20.5261 3.2 20.6394 3.38C20.7594 3.55333 20.8194 3.79 20.8194 4.09C20.8194 4.25 20.7927 4.4 20.7394 4.54C20.6927 4.68 20.6227 4.8 20.5294 4.9C20.4427 5 20.3327 5.08667 20.1994 5.16C20.5061 5.24667 20.7261 5.4 20.8594 5.62C20.9994 5.83333 21.0694 6.09333 21.0694 6.4C21.0694 6.68667 21.0127 6.93333 20.8994 7.14C20.7861 7.34 20.6327 7.50333 20.4394 7.63C20.2527 7.75667 20.0427 7.85 19.8094 7.91C19.5827 7.97 19.3527 8 19.1194 8H16.4894ZM17.7194 6.94H18.9694C19.1361 6.94 19.2861 6.92333 19.4194 6.89C19.5527 6.85667 19.6594 6.79667 19.7394 6.71C19.8261 6.62333 19.8694 6.50333 19.8694 6.35C19.8694 6.21 19.8361 6.1 19.7694 6.02C19.7094 5.93333 19.6261 5.87333 19.5194 5.84C19.4194 5.8 19.3061 5.77667 19.1794 5.77C19.0527 5.75667 18.9294 5.75 18.8094 5.75H17.7194V6.94ZM17.7194 4.89H18.5494C18.6627 4.89 18.7827 4.88333 18.9094 4.87C19.0361 4.85667 19.1561 4.83 19.2694 4.79C19.3827 4.74333 19.4761 4.68 19.5494 4.6C19.6227 4.52 19.6594 4.41667 19.6594 4.29C19.6594 4.11667 19.6094 3.99333 19.5094 3.92C19.4161 3.84667 19.2994 3.8 19.1594 3.78C19.0261 3.76 18.8927 3.75 18.7594 3.75H17.7194V4.89ZM22.0754 8V2.73H23.2954V4.85H25.4954V2.73H26.7154V8H25.4954V5.94H23.2954V8H22.0754ZM29.5357 8.07C29.3023 8.07 29.0757 8.03667 28.8557 7.97C28.6423 7.90333 28.449 7.80667 28.2757 7.68C28.1023 7.54667 27.9657 7.38333 27.8657 7.19C27.7657 6.99 27.7157 6.75667 27.7157 6.49C27.7157 6.15 27.7823 5.87333 27.9157 5.66C28.049 5.44 28.229 5.27333 28.4557 5.16C28.689 5.04667 28.9523 4.97 29.2457 4.93C29.539 4.88333 29.8457 4.86 30.1657 4.86H31.1957C31.1957 4.62667 31.159 4.42667 31.0857 4.26C31.0123 4.08667 30.8957 3.95 30.7357 3.85C30.5823 3.75 30.3823 3.7 30.1357 3.7C29.9757 3.7 29.8257 3.72 29.6857 3.76C29.5523 3.79333 29.4357 3.85 29.3357 3.93C29.2423 4.00333 29.1757 4.1 29.1357 4.22H27.8857C27.9323 3.94667 28.0257 3.71333 28.1657 3.52C28.3123 3.32 28.489 3.15667 28.6957 3.03C28.909 2.90333 29.1423 2.81 29.3957 2.75C29.649 2.68333 29.9057 2.65 30.1657 2.65C30.679 2.65 31.0957 2.75 31.4157 2.95C31.7423 3.15 31.9823 3.43667 32.1357 3.81C32.289 4.18333 32.3657 4.63333 32.3657 5.16V8H31.2857L31.2557 7.36C31.109 7.54667 30.939 7.69333 30.7457 7.8C30.559 7.9 30.3623 7.97 30.1557 8.01C29.949 8.05 29.7423 8.07 29.5357 8.07ZM29.8157 7.08C30.089 7.08 30.329 7.03 30.5357 6.93C30.7423 6.83 30.9057 6.69 31.0257 6.51C31.1457 6.33 31.2057 6.12 31.2057 5.88V5.72H30.2557C30.0823 5.72 29.9157 5.72667 29.7557 5.74C29.5957 5.74667 29.4523 5.77333 29.3257 5.82C29.2057 5.86 29.109 5.92333 29.0357 6.01C28.9623 6.09667 28.9257 6.22 28.9257 6.38C28.9257 6.53333 28.9657 6.66333 29.0457 6.77C29.1257 6.87 29.2323 6.94667 29.3657 7C29.5057 7.05333 29.6557 7.08 29.8157 7.08ZM33.2004 8L34.6104 5.99C34.2571 5.89 33.9738 5.71 33.7604 5.45C33.5471 5.19 33.4404 4.86333 33.4404 4.47C33.4404 4.13 33.4938 3.85 33.6004 3.63C33.7071 3.40333 33.8571 3.22667 34.0504 3.1C34.2438 2.96667 34.4704 2.87333 34.7304 2.82C34.9904 2.76 35.2738 2.73 35.5804 2.73H37.9404V8H36.7204V6.22H35.8004L34.6304 8H33.2004ZM36.0104 5.2H36.7204V3.78H35.6704C35.5171 3.78 35.3771 3.79 35.2504 3.81C35.1238 3.83 35.0171 3.86667 34.9304 3.92C34.8438 3.97333 34.7771 4.04333 34.7304 4.13C34.6838 4.21667 34.6604 4.33333 34.6604 4.48C34.6604 4.64 34.7004 4.77 34.7804 4.87C34.8604 4.96333 34.9671 5.03667 35.1004 5.09C35.2338 5.13667 35.3804 5.16667 35.5404 5.18C35.7004 5.19333 35.8571 5.2 36.0104 5.2Z" fill="url(#paint0_linear_1_74)"/>
<defs>
<linearGradient id="paint0_linear_1_74" x1="19" y1="-2" x2="19" y2="11" gradientUnits="userSpaceOnUse">
<stop stop-color="#5886EC"/>
<stop offset="1" stop-color="#394B90"/>
</linearGradient>
</defs>
</svg>
