<svg width="36" height="11" viewBox="0 0 36 11" fill="none" xmlns="http://www.w3.org/2000/svg">
<path d="M0.479336 9.84V6.86C0.746003 6.86 0.942669 6.8 1.06934 6.68C1.20267 6.55333 1.29934 6.39667 1.35934 6.21C1.41934 6.02333 1.466 5.82 1.49934 5.6C1.53267 5.37333 1.55934 5.14333 1.57934 4.91C1.606 4.67667 1.626 4.44667 1.63934 4.22C1.67267 3.65333 1.696 3.1 1.70934 2.56C1.72267 2.01333 1.73267 1.47 1.73934 0.93H6.57934V6.86H7.42934V9.84H6.17934V8H1.72934V9.84H0.479336ZM2.45934 6.86H5.32934V2.07H2.90934L2.83934 4.47C2.83267 4.61667 2.82267 4.79 2.80934 4.99C2.80267 5.18333 2.786 5.38667 2.75934 5.6C2.73267 5.81333 2.696 6.03 2.64934 6.25C2.60267 6.46333 2.53934 6.66667 2.45934 6.86ZM8.37027 9.94V2.73H9.51027L9.57027 3.45C9.77694 3.17 10.0303 2.96667 10.3303 2.84C10.6303 2.71333 10.9469 2.65 11.2803 2.65C11.7869 2.65 12.2103 2.77 12.5503 3.01C12.8903 3.25 13.1436 3.57667 13.3103 3.99C13.4769 4.39667 13.5603 4.85667 13.5603 5.37C13.5603 5.88333 13.4736 6.34333 13.3003 6.75C13.1336 7.15667 12.8736 7.48 12.5203 7.72C12.1736 7.95333 11.7269 8.07 11.1803 8.07C10.9269 8.07 10.7003 8.04333 10.5003 7.99C10.3003 7.93 10.1236 7.85333 9.97027 7.76C9.82361 7.66 9.69694 7.55333 9.59027 7.44V9.94H8.37027ZM11.0103 6.97C11.3503 6.97 11.6169 6.89667 11.8103 6.75C12.0036 6.59667 12.1436 6.4 12.2303 6.16C12.3169 5.91333 12.3603 5.65333 12.3603 5.38C12.3603 5.09333 12.3136 4.82667 12.2203 4.58C12.1336 4.33333 11.9903 4.13333 11.7903 3.98C11.5903 3.82667 11.3236 3.75 10.9903 3.75C10.6836 3.75 10.4236 3.82667 10.2103 3.98C10.0036 4.12667 9.84694 4.32333 9.74027 4.57C9.63361 4.81667 9.58027 5.08333 9.58027 5.37C9.58027 5.66333 9.63027 5.93333 9.73027 6.18C9.83027 6.42 9.98694 6.61333 10.2003 6.76C10.4136 6.9 10.6836 6.97 11.0103 6.97ZM14.7231 10.36V9.14C15.0231 9.14 15.2631 9.10667 15.4431 9.04C15.6298 8.98 15.7864 8.88 15.9131 8.74C16.0398 8.60667 16.1564 8.43 16.2631 8.21L14.0231 2.73H15.4431L16.9631 6.82L18.1631 2.73H19.5031L18.0831 7.14C18.0031 7.38667 17.9131 7.64333 17.8131 7.91C17.7198 8.17667 17.6098 8.43667 17.4831 8.69C17.3631 8.94333 17.2264 9.17667 17.0731 9.39C16.9198 9.60333 16.7464 9.78 16.5531 9.92C16.3931 10.0333 16.2331 10.12 16.0731 10.18C15.9198 10.2467 15.7364 10.2933 15.5231 10.32C15.3164 10.3467 15.0498 10.36 14.7231 10.36ZM22.2279 8.07C21.9545 8.07 21.6812 8.04333 21.4079 7.99C21.1412 7.93 20.8912 7.83667 20.6579 7.71C20.4312 7.57667 20.2445 7.40333 20.0979 7.19C19.9512 6.97667 19.8645 6.71333 19.8379 6.4H21.0279C21.0479 6.54667 21.1212 6.66667 21.2479 6.76C21.3812 6.85333 21.5345 6.92333 21.7079 6.97C21.8879 7.01 22.0545 7.03 22.2079 7.03C22.3745 7.03 22.5379 7.01333 22.6979 6.98C22.8579 6.94 22.9912 6.87333 23.0979 6.78C23.2112 6.68 23.2679 6.54333 23.2679 6.37C23.2679 6.21 23.2279 6.09 23.1479 6.01C23.0745 5.93 22.9712 5.87667 22.8379 5.85C22.7112 5.81667 22.5645 5.8 22.3979 5.8H21.4779V4.87H22.2079C22.3345 4.87 22.4512 4.86 22.5579 4.84C22.6645 4.82 22.7579 4.78667 22.8379 4.74C22.9245 4.69333 22.9912 4.63333 23.0379 4.56C23.0845 4.48 23.1079 4.38667 23.1079 4.28C23.1079 4.12667 23.0645 4.01 22.9779 3.93C22.8912 3.84333 22.7779 3.78333 22.6379 3.75C22.4979 3.71 22.3545 3.69 22.2079 3.69C22.0479 3.69 21.8879 3.70667 21.7279 3.74C21.5745 3.77333 21.4412 3.83333 21.3279 3.92C21.2212 4.00667 21.1545 4.12667 21.1279 4.28H19.9579C19.9979 3.86667 20.1312 3.54333 20.3579 3.31C20.5845 3.07 20.8645 2.9 21.1979 2.8C21.5312 2.7 21.8679 2.65 22.2079 2.65C22.4479 2.65 22.6879 2.67333 22.9279 2.72C23.1745 2.76667 23.3979 2.84667 23.5979 2.96C23.7979 3.07333 23.9579 3.22333 24.0779 3.41C24.1979 3.59667 24.2579 3.83 24.2579 4.11C24.2579 4.33 24.2112 4.53333 24.1179 4.72C24.0245 4.9 23.8779 5.04333 23.6779 5.15C23.9579 5.25667 24.1579 5.42 24.2779 5.64C24.3979 5.86 24.4579 6.11333 24.4579 6.4C24.4579 6.7 24.3912 6.95667 24.2579 7.17C24.1312 7.38333 23.9579 7.55667 23.7379 7.69C23.5245 7.82333 23.2845 7.92 23.0179 7.98C22.7579 8.04 22.4945 8.07 22.2279 8.07ZM25.4015 8V2.73H26.6315V4.53H27.7315C28.0382 4.53 28.3182 4.55667 28.5715 4.61C28.8315 4.66333 29.0549 4.75333 29.2415 4.88C29.4282 5.00667 29.5715 5.18 29.6715 5.4C29.7715 5.61333 29.8215 5.88333 29.8215 6.21C29.8215 6.52333 29.7649 6.79667 29.6515 7.03C29.5382 7.25667 29.3815 7.44333 29.1815 7.59C28.9815 7.73 28.7482 7.83333 28.4815 7.9C28.2149 7.96667 27.9315 8 27.6315 8H25.4015ZM26.6315 6.94H27.2615C27.4415 6.94 27.6115 6.93333 27.7715 6.92C27.9315 6.9 28.0749 6.87 28.2015 6.83C28.3349 6.78333 28.4349 6.71333 28.5015 6.62C28.5749 6.52 28.6115 6.39333 28.6115 6.24C28.6115 6.08667 28.5815 5.96667 28.5215 5.88C28.4615 5.78667 28.3815 5.71667 28.2815 5.67C28.1882 5.62333 28.0782 5.59333 27.9515 5.58C27.8315 5.56667 27.7082 5.56 27.5815 5.56H26.6315V6.94ZM30.3547 8L31.7647 5.99C31.4114 5.89 31.1281 5.71 30.9147 5.45C30.7014 5.19 30.5947 4.86333 30.5947 4.47C30.5947 4.13 30.6481 3.85 30.7547 3.63C30.8614 3.40333 31.0114 3.22667 31.2047 3.1C31.3981 2.96667 31.6247 2.87333 31.8847 2.82C32.1447 2.76 32.4281 2.73 32.7347 2.73H35.0947V8H33.8747V6.22H32.9547L31.7847 8H30.3547ZM33.1647 5.2H33.8747V3.78H32.8247C32.6714 3.78 32.5314 3.79 32.4047 3.81C32.2781 3.83 32.1714 3.86667 32.0847 3.92C31.9981 3.97333 31.9314 4.04333 31.8847 4.13C31.8381 4.21667 31.8147 4.33333 31.8147 4.48C31.8147 4.64 31.8547 4.77 31.9347 4.87C32.0147 4.96333 32.1214 5.03667 32.2547 5.09C32.3881 5.13667 32.5347 5.16667 32.6947 5.18C32.8547 5.19333 33.0114 5.2 33.1647 5.2Z" fill="#B5B8B1" fill-opacity="0.3"/>
</svg>
