<svg width="42" height="10" viewBox="0 0 42 10" fill="none" xmlns="http://www.w3.org/2000/svg">
<path d="M3.59105 8.08C3.21772 8.08 2.86105 8.04 2.52105 7.96C2.18772 7.88 1.88439 7.75333 1.61105 7.58C1.34439 7.40667 1.12772 7.18333 0.961055 6.91C0.801055 6.63667 0.711055 6.30667 0.691055 5.92H1.90105C1.92772 6.10667 1.99105 6.26333 2.09105 6.39C2.19772 6.51667 2.32772 6.62 2.48105 6.7C2.64105 6.78 2.81772 6.83667 3.01105 6.87C3.20439 6.90333 3.39772 6.92 3.59105 6.92C3.75105 6.92 3.91772 6.91 4.09105 6.89C4.27105 6.86333 4.43772 6.81333 4.59105 6.74C4.75105 6.66667 4.87772 6.56333 4.97105 6.43C5.07105 6.29 5.12106 6.11 5.12106 5.89C5.12106 5.69 5.08105 5.52667 5.00105 5.4C4.92772 5.27333 4.82439 5.17667 4.69105 5.11C4.55772 5.04333 4.40105 4.99667 4.22105 4.97C4.04772 4.94333 3.85772 4.93 3.65105 4.93H2.69105V3.88H3.37105C3.57105 3.88 3.76105 3.86333 3.94105 3.83C4.12105 3.79 4.27772 3.73333 4.41105 3.66C4.55105 3.58667 4.66105 3.49 4.74105 3.37C4.82105 3.24333 4.86105 3.09333 4.86105 2.92C4.86105 2.66 4.79105 2.46667 4.65105 2.34C4.51772 2.20667 4.34772 2.11667 4.14105 2.07C3.93439 2.01667 3.72772 1.99 3.52105 1.99C3.26772 1.99 3.03439 2.02333 2.82105 2.09C2.60772 2.15667 2.43439 2.26 2.30105 2.4C2.16772 2.54 2.09439 2.71667 2.08105 2.93H0.871055C0.877721 2.59667 0.941055 2.31333 1.06105 2.08C1.18105 1.84 1.33772 1.64333 1.53105 1.49C1.72439 1.33 1.94105 1.20333 2.18105 1.11C2.42105 1.01 2.66772 0.94 2.92105 0.9C3.17439 0.86 3.41105 0.84 3.63105 0.84C3.93772 0.84 4.23439 0.873333 4.52105 0.94C4.81439 1.00667 5.07772 1.11667 5.31105 1.27C5.55106 1.41667 5.74105 1.61333 5.88105 1.86C6.02105 2.10667 6.09106 2.40333 6.09106 2.75C6.09106 2.92333 6.06439 3.09667 6.01105 3.27C5.96439 3.44333 5.87772 3.61 5.75106 3.77C5.63106 3.93 5.44772 4.07667 5.20105 4.21C5.59439 4.32333 5.88772 4.53667 6.08106 4.85C6.28105 5.16333 6.38105 5.52333 6.38105 5.93C6.37439 6.31 6.29106 6.63667 6.13106 6.91C5.97772 7.18333 5.77105 7.40667 5.51105 7.58C5.25105 7.74667 4.95439 7.87333 4.62105 7.96C4.29439 8.04 3.95105 8.08 3.59105 8.08ZM9.0259 8.07C8.79257 8.07 8.5659 8.03667 8.3459 7.97C8.13257 7.90333 7.93923 7.80667 7.7659 7.68C7.59257 7.54667 7.4559 7.38333 7.3559 7.19C7.2559 6.99 7.2059 6.75667 7.2059 6.49C7.2059 6.15 7.27257 5.87333 7.4059 5.66C7.53923 5.44 7.71923 5.27333 7.9459 5.16C8.17923 5.04667 8.44257 4.97 8.7359 4.93C9.02923 4.88333 9.3359 4.86 9.6559 4.86H10.6859C10.6859 4.62667 10.6492 4.42667 10.5759 4.26C10.5026 4.08667 10.3859 3.95 10.2259 3.85C10.0726 3.75 9.87257 3.7 9.6259 3.7C9.4659 3.7 9.3159 3.72 9.1759 3.76C9.04257 3.79333 8.9259 3.85 8.8259 3.93C8.73257 4.00333 8.6659 4.1 8.6259 4.22H7.3759C7.42257 3.94667 7.5159 3.71333 7.6559 3.52C7.80257 3.32 7.97923 3.15667 8.1859 3.03C8.39923 2.90333 8.63257 2.81 8.8859 2.75C9.13923 2.68333 9.3959 2.65 9.6559 2.65C10.1692 2.65 10.5859 2.75 10.9059 2.95C11.2326 3.15 11.4726 3.43667 11.6259 3.81C11.7792 4.18333 11.8559 4.63333 11.8559 5.16V8H10.7759L10.7459 7.36C10.5992 7.54667 10.4292 7.69333 10.2359 7.8C10.0492 7.9 9.85257 7.97 9.6459 8.01C9.43923 8.05 9.23257 8.07 9.0259 8.07ZM9.3059 7.08C9.57923 7.08 9.81923 7.03 10.0259 6.93C10.2326 6.83 10.3959 6.69 10.5159 6.51C10.6359 6.33 10.6959 6.12 10.6959 5.88V5.72H9.7459C9.57257 5.72 9.4059 5.72667 9.2459 5.74C9.0859 5.74667 8.94257 5.77333 8.8159 5.82C8.6959 5.86 8.59923 5.92333 8.5259 6.01C8.45257 6.09667 8.4159 6.22 8.4159 6.38C8.4159 6.53333 8.4559 6.66333 8.5359 6.77C8.6159 6.87 8.72257 6.94667 8.8559 7C8.9959 7.05333 9.1459 7.08 9.3059 7.08ZM12.5907 9.53V6.92C12.764 6.92 12.9073 6.87667 13.0207 6.79C13.134 6.69667 13.224 6.57333 13.2907 6.42C13.364 6.26667 13.4207 6.1 13.4607 5.92C13.5007 5.73333 13.5307 5.54667 13.5507 5.36C13.5907 5.06 13.614 4.75333 13.6207 4.44C13.634 4.12 13.6407 3.84667 13.6407 3.62C13.6473 3.47333 13.6507 3.32667 13.6507 3.18C13.6507 3.02667 13.6507 2.87667 13.6507 2.73H17.7207V6.92H18.4007V9.53H17.2007V8H13.7907V9.53H12.5907ZM14.3307 6.92H16.5007V3.81H14.7507C14.744 4.05667 14.7373 4.32333 14.7307 4.61C14.724 4.89 14.7107 5.15667 14.6907 5.41C14.684 5.55667 14.6673 5.72 14.6407 5.9C14.6207 6.08 14.5873 6.25667 14.5407 6.43C14.494 6.60333 14.424 6.76667 14.3307 6.92ZM20.7935 8.07C20.5601 8.07 20.3335 8.03667 20.1135 7.97C19.9001 7.90333 19.7068 7.80667 19.5335 7.68C19.3601 7.54667 19.2235 7.38333 19.1235 7.19C19.0235 6.99 18.9735 6.75667 18.9735 6.49C18.9735 6.15 19.0401 5.87333 19.1735 5.66C19.3068 5.44 19.4868 5.27333 19.7135 5.16C19.9468 5.04667 20.2101 4.97 20.5035 4.93C20.7968 4.88333 21.1035 4.86 21.4235 4.86H22.4535C22.4535 4.62667 22.4168 4.42667 22.3435 4.26C22.2701 4.08667 22.1535 3.95 21.9935 3.85C21.8401 3.75 21.6401 3.7 21.3935 3.7C21.2335 3.7 21.0835 3.72 20.9435 3.76C20.8101 3.79333 20.6935 3.85 20.5935 3.93C20.5001 4.00333 20.4335 4.1 20.3935 4.22H19.1435C19.1901 3.94667 19.2835 3.71333 19.4235 3.52C19.5701 3.32 19.7468 3.15667 19.9535 3.03C20.1668 2.90333 20.4001 2.81 20.6535 2.75C20.9068 2.68333 21.1635 2.65 21.4235 2.65C21.9368 2.65 22.3535 2.75 22.6735 2.95C23.0001 3.15 23.2401 3.43667 23.3935 3.81C23.5468 4.18333 23.6235 4.63333 23.6235 5.16V8H22.5435L22.5135 7.36C22.3668 7.54667 22.1968 7.69333 22.0035 7.8C21.8168 7.9 21.6201 7.97 21.4135 8.01C21.2068 8.05 21.0001 8.07 20.7935 8.07ZM21.0735 7.08C21.3468 7.08 21.5868 7.03 21.7935 6.93C22.0001 6.83 22.1635 6.69 22.2835 6.51C22.4035 6.33 22.4635 6.12 22.4635 5.88V5.72H21.5135C21.3401 5.72 21.1735 5.72667 21.0135 5.74C20.8535 5.74667 20.7101 5.77333 20.5835 5.82C20.4635 5.86 20.3668 5.92333 20.2935 6.01C20.2201 6.09667 20.1835 6.22 20.1835 6.38C20.1835 6.53333 20.2235 6.66333 20.3035 6.77C20.3835 6.87 20.4901 6.94667 20.6235 7C20.7635 7.05333 20.9135 7.08 21.0735 7.08ZM24.7882 8V2.73H26.0082V4.85H28.2082V2.73H29.4282V8H28.2082V5.94H26.0082V8H24.7882ZM30.6086 8V2.73H31.8286V6.16C31.8686 6.08667 31.9186 6.00667 31.9786 5.92C32.0452 5.83333 32.1019 5.76333 32.1486 5.71L34.4086 2.73H35.4886V8H34.2786V4.61C34.2252 4.69667 34.1686 4.78 34.1086 4.86C34.0552 4.93333 34.0019 5.00333 33.9486 5.07L31.7186 8H30.6086ZM36.343 8L37.753 5.99C37.3997 5.89 37.1163 5.71 36.903 5.45C36.6897 5.19 36.583 4.86333 36.583 4.47C36.583 4.13 36.6363 3.85 36.743 3.63C36.8497 3.40333 36.9997 3.22667 37.193 3.1C37.3863 2.96667 37.613 2.87333 37.873 2.82C38.133 2.76 38.4163 2.73 38.723 2.73H41.083V8H39.863V6.22H38.943L37.773 8H36.343ZM39.153 5.2H39.863V3.78H38.813C38.6597 3.78 38.5197 3.79 38.393 3.81C38.2663 3.83 38.1597 3.86667 38.073 3.92C37.9863 3.97333 37.9197 4.04333 37.873 4.13C37.8263 4.21667 37.803 4.33333 37.803 4.48C37.803 4.64 37.843 4.77 37.923 4.87C38.003 4.96333 38.1097 5.03667 38.243 5.09C38.3763 5.13667 38.523 5.16667 38.683 5.18C38.843 5.19333 38.9997 5.2 39.153 5.2Z" fill="#B5B8B1" fill-opacity="0.3"/>
</svg>
