<svg width="54" height="11" viewBox="0 0 54 11" fill="none" xmlns="http://www.w3.org/2000/svg">
<path d="M1.64316 8.01V6.82C1.9365 6.82 2.17983 6.80333 2.37316 6.77C2.57316 6.73 2.7465 6.65333 2.89316 6.54C3.0465 6.42667 3.18983 6.25333 3.32316 6.02L0.603164 0.93H2.06316L3.99316 4.8L5.54316 0.93H6.88316L5.34316 4.52C5.24316 4.76 5.12983 5.02667 5.00316 5.32C4.8765 5.60667 4.7365 5.89333 4.58316 6.18C4.4365 6.46667 4.2765 6.73333 4.10316 6.98C3.9365 7.22 3.7565 7.41 3.56316 7.55C3.32316 7.72333 3.0465 7.84333 2.73316 7.91C2.4265 7.97667 2.06316 8.01 1.64316 8.01ZM6.49254 8.01V6.91C6.63921 6.91 6.76587 6.87667 6.87254 6.81C6.97921 6.73667 7.06921 6.64 7.14254 6.52C7.22921 6.37333 7.29254 6.18667 7.33254 5.96C7.37254 5.73333 7.39921 5.50333 7.41254 5.27C7.43254 4.97 7.44587 4.67 7.45254 4.37C7.46587 4.06333 7.47587 3.77 7.48254 3.49C7.49587 3.20333 7.50254 2.95 7.50254 2.73H11.4625V8H10.2425V3.81H8.63254C8.62587 4.03 8.61587 4.26333 8.60254 4.51C8.59587 4.75667 8.58587 5.00667 8.57254 5.26C8.55921 5.50667 8.53587 5.74667 8.50254 5.98C8.47587 6.24 8.42921 6.50333 8.36254 6.77C8.30254 7.03667 8.19587 7.27667 8.04254 7.49C7.88254 7.69 7.68254 7.82667 7.44254 7.9C7.20921 7.97333 6.89254 8.01 6.49254 8.01ZM12.8657 10.36V9.14C13.1657 9.14 13.4057 9.10667 13.5857 9.04C13.7723 8.98 13.929 8.88 14.0557 8.74C14.1823 8.60667 14.299 8.43 14.4057 8.21L12.1657 2.73H13.5857L15.1057 6.82L16.3057 2.73H17.6457L16.2257 7.14C16.1457 7.38667 16.0557 7.64333 15.9557 7.91C15.8623 8.17667 15.7523 8.43667 15.6257 8.69C15.5057 8.94333 15.369 9.17667 15.2157 9.39C15.0623 9.60333 14.889 9.78 14.6957 9.92C14.5357 10.0333 14.3757 10.12 14.2157 10.18C14.0623 10.2467 13.879 10.2933 13.6657 10.32C13.459 10.3467 13.1923 10.36 12.8657 10.36ZM21.2804 8V6.14C21.0271 6.18 20.8071 6.20667 20.6204 6.22C20.4404 6.22667 20.2738 6.23 20.1204 6.23C19.6204 6.23 19.2171 6.15 18.9104 5.99C18.6104 5.83 18.3904 5.59 18.2504 5.27C18.1171 4.94333 18.0504 4.53667 18.0504 4.05V2.73H19.2704V3.99C19.2704 4.22333 19.2904 4.42667 19.3304 4.6C19.3771 4.76667 19.4738 4.89667 19.6204 4.99C19.7671 5.08333 19.9938 5.13 20.3004 5.13C20.4471 5.13 20.6071 5.12333 20.7804 5.11C20.9538 5.09667 21.1204 5.07667 21.2804 5.05V2.73H22.5004V8H21.2804ZM23.6906 8V2.73H24.9106V6.92H26.5706V2.73H27.7906V6.92H29.4706V2.73H30.6906V8H23.6906ZM34.2439 8.07C33.6973 8.07 33.2306 7.95667 32.8439 7.73C32.4639 7.50333 32.1739 7.19 31.9739 6.79C31.7806 6.38333 31.6839 5.91333 31.6839 5.38C31.6839 4.84667 31.7839 4.37667 31.9839 3.97C32.1906 3.55667 32.4839 3.23333 32.8639 3C33.2506 2.76667 33.7139 2.65 34.2539 2.65C34.6406 2.65 34.9839 2.72 35.2839 2.86C35.5839 2.99333 35.8373 3.18333 36.0439 3.43C36.2506 3.67 36.4039 3.95 36.5039 4.27C36.6039 4.58333 36.6506 4.92 36.6439 5.28C36.6439 5.36 36.6406 5.44 36.6339 5.52C36.6273 5.59333 36.6173 5.67333 36.6039 5.76H32.9039C32.9239 5.99333 32.9839 6.20667 33.0839 6.4C33.1906 6.59333 33.3373 6.74667 33.5239 6.86C33.7173 6.97333 33.9573 7.03 34.2439 7.03C34.4106 7.03 34.5706 7.01 34.7239 6.97C34.8773 6.92333 35.0106 6.85667 35.1239 6.77C35.2439 6.68333 35.3239 6.57333 35.3639 6.44H36.5839C36.4973 6.82 36.3373 7.13 36.1039 7.37C35.8706 7.61 35.5906 7.78667 35.2639 7.9C34.9439 8.01333 34.6039 8.07 34.2439 8.07ZM32.9239 4.85H35.4639C35.4639 4.63 35.4139 4.43 35.3139 4.25C35.2139 4.07 35.0706 3.93 34.8839 3.83C34.7039 3.72333 34.4839 3.67 34.2239 3.67C33.9439 3.67 33.7106 3.72667 33.5239 3.84C33.3373 3.95333 33.1939 4.1 33.0939 4.28C32.9939 4.46 32.9373 4.65 32.9239 4.85ZM37.6261 8V2.73H38.8461V4.85H41.0461V2.73H42.2661V8H41.0461V5.94H38.8461V8H37.6261ZM43.4464 8V2.73H44.6664V6.16C44.7064 6.08667 44.7564 6.00667 44.8164 5.92C44.8831 5.83333 44.9398 5.76333 44.9864 5.71L47.2464 2.73H48.3264V8H47.1164V4.61C47.0631 4.69667 47.0064 4.78 46.9464 4.86C46.8931 4.93333 46.8398 5.00333 46.7864 5.07L44.5564 8H43.4464ZM49.1809 8L50.5909 5.99C50.2376 5.89 49.9542 5.71 49.7409 5.45C49.5276 5.19 49.4209 4.86333 49.4209 4.47C49.4209 4.13 49.4742 3.85 49.5809 3.63C49.6876 3.40333 49.8376 3.22667 50.0309 3.1C50.2242 2.96667 50.4509 2.87333 50.7109 2.82C50.9709 2.76 51.2542 2.73 51.5609 2.73H53.9209V8H52.7009V6.22H51.7809L50.6109 8H49.1809ZM51.9909 5.2H52.7009V3.78H51.6509C51.4976 3.78 51.3576 3.79 51.2309 3.81C51.1042 3.83 50.9976 3.86667 50.9109 3.92C50.8242 3.97333 50.7576 4.04333 50.7109 4.13C50.6642 4.21667 50.6409 4.33333 50.6409 4.48C50.6409 4.64 50.6809 4.77 50.7609 4.87C50.8409 4.96333 50.9476 5.03667 51.0809 5.09C51.2142 5.13667 51.3609 5.16667 51.5209 5.18C51.6809 5.19333 51.8376 5.2 51.9909 5.2Z" fill="#B5B8B1" fill-opacity="0.3"/>
</svg>
